# xmcd
# 
# Track frame offsets:
#     150
#     13163
#     40200
#     65700
#     90788
#     116138
#     141675
#     165675
# 
# Disc length: 2597
# 
# Revision: 0
# Processed by: cddbd v1.5.2PL0 Copyright (c) Steve Scherf et al.
# Submitted via: fre:ac v1.0.17
# 
DISCID=6f0a2308
DTITLE=Wolfchant - Embraced By Fire
DYEAR=2013
DGENRE=Metal
TTITLE0=Devouring Flames
TTITLE1=Embraced By Fire
TTITLE2=Element
TTITLE3=Turning Into Red
TTITLE4=Einsame Wacht
TTITLE5=Autumns Breath
TTITLE6=Freier Geist
TTITLE7=Winter´s Triumph
EXTD=
EXTT0=
EXTT1=
EXTT2=
EXTT3=
EXTT4=
EXTT5=
EXTT6=
EXTT7=
PLAYORDER=
